<svg
  version="1.1"
  viewBox="0.0 0.0 480.0 480.0"
  fill="none"
  stroke="none"
  stroke-linecap="square"
  stroke-miterlimit="10"
  xmlns:xlink="http://www.w3.org/1999/xlink"
  xmlns="http://www.w3.org/2000/svg"
>
  <clipPath id="p.0">
    <path d="m0 0l480.0 0l0 480.0l-480.0 0l0 -480.0z" clip-rule="nonzero" />
  </clipPath>
  <g clip-path="url(#p.0)">
    <path
      fill="#000000"
      fill-opacity="0.0"
      d="m0 0l480.0 0l0 480.0l-480.0 0z"
      fill-rule="evenodd"
    />
    <path
      fill="#000000"
      fill-opacity="0.0"
      d="m20.031496 20.566929l439.937 0l0 438.86615l-439.937 0z"
      fill-rule="evenodd"
    />
    <path
      fill="#000000"
      d="m57.540684 305.50626l36.95312 0l0 -116.734375l-36.95312 0l0 -15.859375l92.9375 0l0 15.859375l-36.953125 0l0 116.734375l36.953125 0l0 16.09375l-92.9375 0l0 -16.09375zm147.55621 -94.0625l15.40625 0l1.59375 26.0625l0.671875 0q8.625 -13.375 21.203125 -21.078125q12.578125 -7.703125 27.984375 -7.703125q6.125 0 11.328125 1.03125q5.21875 1.015625 10.4375 3.5l-4.3125 16.09375q-5.890625 -2.03125 -9.859375 -2.9375q-3.96875 -0.921875 -10.53125 -0.921875q-12.46875 0 -23.921875 7.140625q-11.4375 7.140625 -21.421875 24.375l0 64.59375l-18.578125 0l0 -110.15625zm121.25934 81.59375q0 -9.296875 4.421875 -16.203125q4.421875 -6.90625 14.046875 -11.890625q9.640625 -5.0 24.828125 -8.171875q15.1875 -3.171875 36.484375 -4.984375q-0.21875 -5.65625 -1.8125 -10.640625q-1.578125 -5.0 -4.984375 -8.734375q-3.40625 -3.734375 -8.953125 -6.0q-5.546875 -2.28125 -13.484375 -2.28125q-10.875 0 -20.859375 4.203125q-9.96875 4.1875 -17.671875 8.953125l-7.25 -12.703125q4.078125 -2.71875 9.625 -5.546875q5.5625 -2.828125 11.78125 -5.09375q6.234375 -2.265625 13.265625 -3.734375q7.03125 -1.484375 14.28125 -1.484375q22.671875 0 33.65625 12.359375q11.0 12.34375 11.0 32.96875l0 67.546875l-15.1875 0l-1.59375 -14.953125l-0.671875 0q-9.296875 7.25 -20.515625 12.46875q-11.21875 5.203125 -23.015625 5.203125q-7.703125 0 -14.5 -2.15625q-6.796875 -2.15625 -11.90625 -6.109375q-5.09375 -3.96875 -8.046875 -9.75q-2.9375 -5.78125 -2.9375 -13.265625zm18.125 -1.359375q0 4.765625 2.046875 8.0625q2.046875 3.28125 5.328125 5.4375q3.28125 2.140625 7.703125 3.171875q4.421875 1.015625 9.1875 1.015625q9.515625 0 18.6875 -4.1875q9.1875 -4.203125 18.703125 -12.140625l0 -29.015625q-17.671875 1.375 -29.578125 3.875q-11.90625 2.484375 -19.046875 6.0q-7.125 3.5 -10.078125 7.921875q-2.953125 4.421875 -2.953125 9.859375z"
      fill-rule="nonzero"
    />
  </g>
</svg>
